# xmcd CD database file
#
# Track frame offsets:
#	150
#	14866
#	30855
#	55345
#	71826
#	91824
#	104473
#	122625
#	140470
#	152889
#	166399
#	182582
#	198289
#	216039
#	232799
#	247104
#	269039
#	286206
#	298353
#	310238
#
# Disc length: 4352 seconds
#
# Revision: 0
# Processed by: cddbd v1.5.2PL0 Copyright (c) Steve Scherf et al.
# Submitted via: CDex 1.70beta2
#
DISCID=2d10fe14
DTITLE=Various Artist - Country Series
DYEAR=1900
DGENRE=Country
TTITLE0=Rednex - Cotton Eye Joe
TTITLE1=George Strait - I Cross My Heart
TTITLE2=Ricky Lyn Gregg - If I had a Cheatin' Heart
TTITLE3=Alabama - Forever's as Far as I'll Go
TTITLE4=Smokin' Armadillos - I'm a Cowboy
TTITLE5=Trisha Yearwood - Wrong Side of Memphis
TTITLE6=Alan Jackson - Who's Cheatin' Who
TTITLE7=Sammy Kershaw - I Buy Her Roses
TTITLE8=Ray Price - Release Me
TTITLE9=Rhett Atkins - Kissing
TTITLE10=Garth Brooks - American Honky Tonk Bar Association
TTITLE11=Sawyer Brown - Hard to Say
TTITLE12=Judds Love can Build a Bridge
TTITLE13=Ty Herndon - Love at 90 Miles an Hour
TTITLE14=Mark Chestnutt - Bubba Shot the Jukebox
TTITLE15=Osborne Brothers - Rocky Top
TTITLE16=Suzy Bogguess - Cross Me Broken Heart
TTITLE17=Neal McCoy - Mudslide
TTITLE18=Martina McBride - My Baby Loves Me
TTITLE19=George Strait - All My Ex's Live in Texas
EXTD=
EXTT0=
EXTT1=
EXTT2=
EXTT3=
EXTT4=
EXTT5=
EXTT6=
EXTT7=
EXTT8=
EXTT9=
EXTT10=
EXTT11=
EXTT12=
EXTT13=
EXTT14=
EXTT15=
EXTT16=
EXTT17=
EXTT18=
EXTT19=
PLAYORDER=
